<svg xmlns="http://www.w3.org/2000/svg" viewBox="0 0 40 40" width="40" height="40">
  <path d="M8 6 h20 a6 6 0 0 1 6 6 v12 a6 6 0 0 1 -6 6 h-12 l-6 6 v-6 h-2 a6 6 0 0 1 -6 -6 v-12 a6 6 0 0 1 6 -6 z"
        fill="#1565C0" />
  <circle cx="13" cy="18" r="1.8" fill="#ffffff" />
  <circle cx="19" cy="18" r="1.8" fill="#ffffff" />
  <circle cx="25" cy="18" r="1.8" fill="#ffffff" />
  <g transform="translate(30 4)">
    <path d="M0 4 L1.2 1 L2.4 4 L5.4 5.4 L2.4 6.8 L1.2 9.8 L0 6.8 L-3 5.4 Z" fill="#1565C0" />
  </g>
</svg>
